<svg width="25" height="25" viewBox="0 0 25 25" fill="none" xmlns="http://www.w3.org/2000/svg">
<path d="M12.658 11.5848C12.558 11.5748 12.438 11.5748 12.328 11.5848C9.94798 11.5048 8.05798 9.55484 8.05798 7.15484C8.05798 4.70484 10.038 2.71484 12.498 2.71484C14.948 2.71484 16.938 4.70484 16.938 7.15484C16.928 9.55484 15.038 11.5048 12.658 11.5848Z" stroke="#515151" stroke-width="1.5" stroke-linecap="round" stroke-linejoin="round"/>
<path d="M7.6579 15.2748C5.2379 16.8948 5.2379 19.5348 7.6579 21.1448C10.4079 22.9848 14.9179 22.9848 17.6679 21.1448C20.0879 19.5248 20.0879 16.8848 17.6679 15.2748C14.9279 13.4448 10.4179 13.4448 7.6579 15.2748Z" stroke="#515151" stroke-width="1.5" stroke-linecap="round" stroke-linejoin="round"/>
</svg>
