<svg width="25" height="26" viewBox="0 0 25 26" fill="none" xmlns="http://www.w3.org/2000/svg">
<path d="M20.999 14.1719H7.42215C6.77497 14.1719 6.25029 13.6472 6.25029 13C6.25029 12.3528 6.77497 11.8281 7.42215 11.8281H20.999L19.4839 10.313C19.0262 9.85534 19.0262 9.11339 19.4839 8.65574C19.9414 8.19809 20.6835 8.19809 21.1411 8.65574L24.6566 12.1713C24.684 12.1987 24.7099 12.2274 24.7345 12.2574C24.7452 12.2705 24.7545 12.2843 24.7645 12.2977C24.7774 12.3149 24.7907 12.3317 24.8027 12.3495C24.8136 12.3659 24.8231 12.3828 24.8331 12.3995C24.8427 12.4156 24.8527 12.4313 24.8616 12.4479C24.8708 12.4651 24.8785 12.4827 24.8868 12.5002C24.8949 12.5174 24.9034 12.5342 24.9107 12.5517C24.9177 12.5688 24.9235 12.5863 24.9297 12.6036C24.9365 12.6224 24.9437 12.6409 24.9495 12.66C24.9547 12.6774 24.9585 12.6949 24.9629 12.7125C24.9678 12.732 24.9733 12.7513 24.9772 12.7712C24.9812 12.7914 24.9836 12.8119 24.9865 12.8323C24.989 12.8497 24.9924 12.8669 24.9941 12.8845C24.9978 12.9224 24.9998 12.9604 24.9999 12.9984C24.9999 12.9989 24.9999 12.9995 24.9999 13.0001C24.9999 13.0006 24.9999 13.0013 24.9999 13.0018C24.9998 13.0398 24.9978 13.0778 24.9941 13.1157C24.9924 13.1331 24.9891 13.1501 24.9867 13.1673C24.9837 13.188 24.9813 13.2086 24.9772 13.2291C24.9733 13.2488 24.9679 13.2678 24.963 13.2871C24.9585 13.3048 24.9546 13.3227 24.9493 13.3403C24.9436 13.3591 24.9365 13.3773 24.9299 13.3958C24.9236 13.4134 24.9178 13.4312 24.9106 13.4485C24.9035 13.4657 24.8952 13.4822 24.8872 13.499C24.8788 13.5169 24.8708 13.5349 24.8614 13.5525C24.8528 13.5685 24.8431 13.5838 24.8338 13.5993C24.8235 13.6166 24.8138 13.634 24.8025 13.6508C24.7911 13.6679 24.7784 13.6839 24.7661 13.7004C24.7555 13.7145 24.7456 13.7291 24.7343 13.7429C24.7109 13.7713 24.6862 13.7986 24.6603 13.8248C24.6591 13.826 24.6581 13.8274 24.6568 13.8287L21.1412 17.3443C20.9123 17.5732 20.6125 17.6876 20.3125 17.6876C20.0127 17.6876 19.7127 17.5732 19.484 17.3444C19.0263 16.8868 19.0263 16.1448 19.4839 15.6872L20.999 14.1719Z" fill="#D0D0D0" fill-opacity="0.87"/>
<path d="M1.17187 2.45312H16.0155C16.6627 2.45312 17.1874 2.97781 17.1874 3.62499V8.31246C17.1874 8.95965 16.6627 9.48433 16.0155 9.48433C15.3684 9.48433 14.8437 8.95965 14.8437 8.31246V4.79686H2.34374V21.2031H14.8437V17.6874C14.8437 17.0402 15.3684 16.5155 16.0155 16.5155C16.6627 16.5155 17.1874 17.0402 17.1874 17.6874V22.375C17.1874 23.0221 16.6627 23.5468 16.0155 23.5468H1.17187C0.524687 23.5468 1.90735e-06 23.0221 1.90735e-06 22.375V3.62499C1.90735e-06 2.97781 0.524687 2.45312 1.17187 2.45312Z" fill="#D0D0D0" fill-opacity="0.87"/>
</svg>
