<svg width="14" height="16" viewBox="0 0 14 16" fill="none" xmlns="http://www.w3.org/2000/svg">
  <path d="M7.00012 9.5C3.24262 9.5 0.182617 12.02 0.182617 15.125C0.182617 15.335 0.347617 15.5 0.557617 15.5H13.4426C13.6526 15.5 13.8176 15.335 13.8176 15.125C13.8176 12.02 10.7576 9.5 7.00012 9.5Z" fill="#009740" />
  <path d="M7 0.5C6.115 0.5 5.305 0.8075 4.66 1.325C3.7975 2.0075 3.25 3.065 3.25 4.25C3.25 4.955 3.445 5.615 3.7975 6.1775C4.4425 7.265 5.6275 8 7 8C7.945 8 8.8075 7.655 9.4675 7.0625C9.76 6.815 10.015 6.515 10.21 6.1775C10.555 5.615 10.75 4.955 10.75 4.25C10.75 2.18 9.07 0.5 7 0.5ZM8.9425 3.845L6.94 5.69C6.805 5.8175 6.6325 5.8775 6.46 5.8775C6.28 5.8775 6.1 5.81 5.965 5.675L5.0425 4.745C4.765 4.4675 4.765 4.025 5.0425 3.7475C5.32 3.47 5.7625 3.47 6.04 3.7475L6.4825 4.19L7.99 2.8025C8.275 2.54 8.7175 2.555 8.98 2.84C9.2425 3.1325 9.2275 3.5825 8.9425 3.845Z" fill="#009740" />
</svg>
  