<svg width="14" height="17" viewBox="0 0 14 17" fill="none" xmlns="http://www.w3.org/2000/svg">
  <path d="M7.00012 10.25C3.24262 10.25 0.182617 12.77 0.182617 15.875C0.182617 16.085 0.347617 16.25 0.557617 16.25H13.4426C13.6526 16.25 13.8176 16.085 13.8176 15.875C13.8176 12.77 10.7576 10.25 7.00012 10.25Z" fill="#FEA628" />
  <path d="M9.7825 1.745C9.1075 0.98 8.1025 0.5 7 0.5C5.95 0.5 4.99 0.9275 4.3075 1.6325C3.655 2.3075 3.25 3.2375 3.25 4.25C3.25 4.955 3.445 5.615 3.7975 6.1775C3.985 6.5 4.225 6.7925 4.51 7.0325C5.1625 7.6325 6.0325 8 7 8C8.3725 8 9.5575 7.265 10.21 6.1775C10.405 5.855 10.555 5.495 10.6375 5.12C10.7125 4.8425 10.75 4.55 10.75 4.25C10.75 3.29 10.3825 2.4125 9.7825 1.745ZM8.4025 4.94H7.705V5.6675C7.705 6.0575 7.39 6.3725 7 6.3725C6.61 6.3725 6.295 6.0575 6.295 5.6675V4.94H5.5975C5.2075 4.94 4.8925 4.625 4.8925 4.235C4.8925 3.845 5.2075 3.53 5.5975 3.53H6.295V2.8625C6.295 2.4725 6.61 2.1575 7 2.1575C7.39 2.1575 7.705 2.4725 7.705 2.8625V3.53H8.4025C8.7925 3.53 9.1075 3.845 9.1075 4.235C9.1075 4.625 8.7925 4.94 8.4025 4.94Z" fill="#FEA628" />
</svg>
  