<svg width="26" height="26" viewBox="0 0 26 26" fill="none" xmlns="http://www.w3.org/2000/svg">
<circle cx="13" cy="13" r="13" fill="#FFF8EE"/>
<path d="M13 15.25C9.2425 15.25 6.1825 17.77 6.1825 20.875C6.1825 21.085 6.3475 21.25 6.5575 21.25H19.4425C19.6525 21.25 19.8175 21.085 19.8175 20.875C19.8175 17.77 16.7575 15.25 13 15.25Z" fill="#E74C3C"/>
<path d="M15.7825 6.745C15.1075 5.98 14.1025 5.5 13 5.5C11.95 5.5 10.99 5.9275 10.3075 6.6325C9.655 7.3075 9.25 8.2375 9.25 9.25C9.25 9.955 9.445 10.615 9.7975 11.1775C9.985 11.5 10.225 11.7925 10.51 12.0325C11.1625 12.6325 12.0325 13 13 13C14.3725 13 15.5575 12.265 16.21 11.1775C16.405 10.855 16.555 10.495 16.6375 10.12C16.7125 9.8425 16.75 9.55 16.75 9.25C16.75 8.29 16.3825 7.4125 15.7825 6.745ZM14.4025 9.94H13.705V10.6675C13.705 11.0575 13.39 11.3725 13 11.3725C12.61 11.3725 12.295 11.0575 12.295 10.6675V9.94H11.5975C11.2075 9.94 10.8925 9.625 10.8925 9.235C10.8925 8.845 11.2075 8.53 11.5975 8.53H12.295V7.8625C12.295 7.4725 12.61 7.1575 13 7.1575C13.39 7.1575 13.705 7.4725 13.705 7.8625V8.53H14.4025C14.7925 8.53 15.1075 8.845 15.1075 9.235C15.1075 9.625 14.7925 9.94 14.4025 9.94Z" fill="#E74C3C"/>
</svg>
