<svg width="14" height="16" viewBox="0 0 14 16" fill="none" xmlns="http://www.w3.org/2000/svg">
  <path d="M7.00012 9.5C3.24262 9.5 0.182617 12.02 0.182617 15.125C0.182617 15.335 0.347617 15.5 0.557617 15.5H13.4426C13.6526 15.5 13.8176 15.335 13.8176 15.125C13.8176 12.02 10.7576 9.5 7.00012 9.5Z" fill="#E74C3C" />
  <path d="M10.6374 3.35006C10.5474 2.98256 10.3974 2.62256 10.1874 2.29256C10.0449 2.05256 9.85744 1.81256 9.65494 1.60256C8.97994 0.927563 8.10244 0.560063 7.20244 0.515063C6.18244 0.447563 5.13994 0.822563 4.35244 1.60256C3.60994 2.33756 3.23494 3.32006 3.24994 4.31006C3.25744 5.24756 3.63244 6.18506 4.34494 6.90506C4.83994 7.40006 5.44744 7.73006 6.09994 7.88006C6.45244 7.97006 6.82744 8.01506 7.20244 7.98506C8.09494 7.94756 8.96494 7.59506 9.64744 6.90506C10.6149 5.93756 10.9449 4.58006 10.6374 3.35006ZM8.49994 5.75006C8.22994 6.02006 7.77994 6.02006 7.50994 5.75006L6.99244 5.23256L6.49744 5.72756C6.22744 5.99756 5.77744 5.99756 5.50744 5.72756C5.22994 5.45006 5.22994 5.00756 5.49994 4.73756L5.99494 4.24256L5.51494 3.77756C5.24494 3.50006 5.24494 3.05756 5.51494 2.77256C5.79244 2.50256 6.23494 2.50256 6.51994 2.77256L6.98494 3.25256L7.48744 2.75006C7.75744 2.48006 8.19994 2.48006 8.47744 2.75006C8.74744 3.02006 8.74744 3.47006 8.47744 3.74006L7.98244 4.23506L8.49994 4.76006C8.76994 5.03006 8.76994 5.48006 8.49994 5.75006Z" fill="#E74C3C" />
</svg>
  